<?xml version="1.0" standalone="no"?>
<!DOCTYPE svg PUBLIC "-//W3C//DTD SVG 20010904//EN"
 "http://www.w3.org/TR/2001/REC-SVG-20010904/DTD/svg10.dtd">
<svg version="1.0" xmlns="http://www.w3.org/2000/svg"
 width="1240.000000pt" height="1240.000000pt" viewBox="0 0 1240.000000 1240.000000"
 preserveAspectRatio="xMidYMid meet">

<g transform="translate(0.000000,1240.000000) scale(0.100000,-0.100000)"
fill="#000000" stroke="none">
<path d="M975 9950 c-34 -5 -83 -26 -150 -67 -55 -32 -123 -65 -150 -72 -185
-50 -309 -180 -361 -381 -26 -97 -23 -313 5 -450 44 -211 144 -469 266 -685
403 -712 1087 -1250 1555 -1222 155 9 253 65 350 199 72 98 110 198 117 309
13 197 -103 566 -292 932 -19 38 -33 73 -29 78 3 5 1 8 -4 7 -4 -2 -47 54 -93
123 -95 140 -201 276 -304 389 l-69 75 63 -60 c86 -82 242 -278 325 -408 38
-59 71 -106 73 -104 1 2 -13 36 -32 76 -40 82 -40 81 -20 81 8 0 15 5 15 10 0
6 5 10 10 10 8 0 183 111 199 126 8 8 -114 179 -194 274 -37 42 -133 140 -139
140 -2 0 -7 -7 -10 -16 -3 -8 -2 -12 3 -9 5 3 12 1 16 -4 3 -6 -3 -8 -14 -6
-11 2 -37 -5 -58 -15 -21 -11 -61 -29 -90 -41 -37 -16 -50 -27 -48 -39 2 -9
-3 -17 -11 -17 -11 0 -11 3 -1 15 10 13 9 14 -8 8 -16 -4 -30 4 -61 37 -41 43
-313 280 -346 300 -22 15 -24 31 -2 23 14 -5 15 -4 5 8 -9 11 -8 15 4 20 8 3
17 4 19 3 2 -1 12 5 22 14 11 9 44 27 74 40 30 13 57 26 60 29 12 14 68 3 100
-20 75 -52 169 -126 250 -198 l85 -74 -85 81 c-146 140 -344 284 -480 350 -72
35 -66 29 30 -28 49 -29 65 -44 64 -60 -1 -21 10 -28 20 -12 4 5 0 12 -6 14
-9 4 -10 6 -1 6 6 1 18 -8 26 -19 8 -11 17 -17 20 -13 4 3 7 1 7 -5 0 -16 -13
-15 -29 1 -10 10 -15 8 -27 -7 -8 -12 -14 -14 -14 -7 0 8 -6 11 -15 7 -13 -5
-14 -2 -4 17 6 12 -7 2 -29 -22 -26 -27 -54 -46 -74 -50 -24 -5 -34 -13 -36
-29 -3 -22 -3 -22 -20 -2 -13 15 -20 17 -32 9 -13 -9 -13 -10 2 -6 10 4 18 -1
21 -14 3 -10 4 -19 2 -19 -1 0 -40 22 -86 48 -46 26 -137 72 -202 102 -65 29
-121 58 -124 63 -3 6 -1 7 5 3 6 -4 26 7 43 24 18 16 36 30 40 30 5 0 9 7 9
15 0 8 7 15 15 15 8 0 19 9 25 20 6 12 22 20 38 21 20 1 15 4 -21 14 -66 18
-153 25 -212 15z m67 -281 c368 -120 782 -473 1086 -926 262 -389 402 -769
402 -1089 0 -133 -16 -218 -56 -295 -20 -41 -34 -55 -71 -71 -41 -18 -60 -20
-157 -15 -236 11 -494 128 -766 345 -170 137 -391 373 -511 547 -19 28 -40 54
-47 58 -7 5 -9 13 -6 19 4 6 3 8 -3 5 -6 -4 -18 4 -27 18 -9 14 -41 51 -72 83
-87 90 -109 135 -153 307 -32 128 -34 139 -37 165 -2 14 -14 79 -28 145 -53
254 -57 307 -31 430 35 165 77 226 185 270 36 15 72 31 80 35 24 14 118 0 212
-31z m-432 9 c-63 -31 -133 -104 -169 -177 -33 -64 -70 -200 -72 -261 l-1 -35
-11 34 c-14 46 6 189 38 258 13 28 43 72 66 98 44 47 137 104 174 105 12 0 2
-9 -25 -22z m-181 -833 c55 -185 157 -412 273 -608 16 -27 37 -67 49 -90 l20
-42 -26 30 c-14 17 -30 29 -36 27 -6 -1 -8 2 -4 8 3 6 -7 24 -24 41 -32 31
-125 190 -162 275 -59 137 -115 327 -133 448 -9 64 8 28 43 -89z m331 -757
c15 -21 17 -28 6 -19 -16 13 -41 51 -33 51 2 0 14 -15 27 -32z m96 -135 c31
-43 77 -103 102 -133 35 -44 37 -47 7 -15 -20 22 -64 76 -98 120 -33 44 -65
86 -70 93 -5 6 -7 12 -4 12 2 0 31 -35 63 -77z m234 -280 c0 -8 -9 0 -50 45
l-45 47 48 -45 c26 -24 47 -45 47 -47z"/>
<path d="M4683 9493 c9 -2 23 -2 30 0 6 3 -1 5 -18 5 -16 0 -22 -2 -12 -5z"/>
<path d="M4719 9463 c-1 -4 -1 -11 0 -15 0 -3 -48 -9 -107 -12 -136 -8 -212
-23 -212 -42 0 -9 -11 -14 -30 -14 -20 0 -30 5 -30 15 0 8 -4 15 -10 15 -5 0
-10 -9 -10 -20 0 -15 -9 -21 -40 -26 -24 -4 -40 -12 -40 -20 0 -8 -8 -14 -19
-14 -10 0 -24 -7 -31 -15 -7 -8 -22 -15 -34 -15 -11 0 -35 -14 -53 -30 -18
-17 -39 -30 -47 -30 -8 0 -18 -5 -21 -11 -4 -5 -18 -14 -31 -19 -13 -5 -24
-16 -24 -24 0 -9 -7 -12 -20 -9 -14 4 -20 0 -20 -11 0 -11 -18 -25 -50 -39
-27 -12 -50 -25 -50 -29 0 -12 -218 -218 -231 -218 -4 0 -11 -9 -14 -20 -3
-11 -13 -20 -21 -20 -8 0 -14 -9 -14 -20 0 -11 -4 -20 -9 -20 -9 0 -35 -59
-32 -73 1 -5 -3 -5 -9 -2 -6 4 -9 14 -6 24 5 12 2 11 -9 -3 -16 -21 -18 -16
66 -167 54 -96 153 -243 238 -349 236 -297 458 -463 750 -560 199 -67 400 -95
768 -106 l222 -7 12 -51 c15 -69 60 -208 71 -222 5 -6 5 -19 2 -29 -4 -10 -1
-20 6 -25 12 -7 57 -136 64 -180 1 -9 5 -20 8 -25 4 -6 16 -51 27 -100 12 -50
26 -107 33 -128 22 -71 0 -48 -31 33 -42 107 -74 211 -106 340 -14 58 -31 118
-37 134 -10 25 -13 27 -23 12 -7 -9 -17 -16 -24 -16 -6 0 -11 -4 -11 -10 0 -5
-12 -12 -27 -16 -24 -5 -124 -48 -173 -75 -8 -4 -39 -20 -69 -36 -30 -15 -67
-40 -84 -55 -16 -16 -33 -28 -38 -28 -20 0 -7 -41 26 -80 19 -23 35 -50 35
-60 0 -20 -48 -42 -115 -55 -50 -9 -153 -65 -160 -87 -4 -9 -14 -20 -23 -23
-20 -7 -72 -76 -93 -122 -7 -18 -17 -33 -22 -33 -4 0 -15 -13 -25 -29 -20 -33
-74 -100 -114 -143 -16 -16 -28 -34 -28 -39 0 -14 -16 -11 -40 9 -20 16 -30
17 -84 8 -69 -10 -78 -19 -65 -55 6 -14 12 -52 14 -84 2 -32 6 -61 9 -65 3 -3
6 -14 6 -24 0 -20 -16 -25 -22 -6 -4 10 -14 9 -46 -1 -23 -8 -39 -18 -36 -23
3 -4 -6 -12 -20 -18 -14 -5 -26 -14 -26 -19 0 -5 -11 -12 -25 -15 -17 -4 -22
-11 -18 -22 5 -13 1 -15 -18 -9 -17 4 -20 3 -10 -3 11 -8 7 -13 -18 -26 -17
-9 -31 -21 -31 -26 0 -15 -53 -60 -71 -60 -19 0 -69 -47 -69 -66 0 -7 -3 -15
-8 -18 -4 -2 -6 44 -4 102 2 76 0 103 -7 92 -6 -8 -11 -28 -11 -44 0 -43 -7
-30 -35 69 -67 231 -185 341 -378 352 -77 4 -81 3 -62 -12 11 -9 45 -23 75
-32 180 -51 267 -238 265 -570 l0 -123 40 0 c44 0 112 -28 133 -53 13 -15 19
-14 75 15 89 44 186 110 232 158 22 22 63 56 90 75 28 19 82 66 120 106 122
125 170 150 495 259 236 79 342 129 575 276 131 82 251 144 302 157 15 3 34
-5 60 -27 89 -76 256 -199 366 -270 64 -42 117 -78 117 -79 0 -1 -9 -34 -19
-72 -84 -304 -166 -809 -191 -1170 -22 -332 -10 -795 30 -1160 53 -475 63
-509 187 -653 24 -28 36 -49 28 -49 -8 0 -13 3 -12 6 1 3 -3 6 -8 6 -18 0 -9
-81 13 -126 24 -49 45 -79 56 -79 4 0 26 -18 48 -40 23 -22 49 -40 59 -40 10
0 21 -5 24 -11 4 -5 12 -8 18 -6 7 3 21 -4 33 -15 22 -19 59 -15 47 6 -3 6 14
-8 38 -30 58 -55 81 -62 111 -32 13 13 27 22 31 20 5 -1 6 2 3 7 -4 5 5 31 19
58 27 54 33 52 10 -4 -18 -44 -13 -57 6 -14 7 16 16 28 20 25 4 -2 11 1 15 7
4 8 8 8 13 0 14 -22 51 2 72 48 12 25 29 54 37 64 14 16 13 17 -14 18 -21 1
-23 3 -9 6 11 3 23 8 27 11 11 11 19 104 8 97 -5 -3 -7 0 -4 8 3 8 -2 17 -12
21 -12 5 -15 2 -10 -9 3 -9 2 -13 -3 -10 -6 3 -15 -3 -21 -12 -15 -23 -9 -9
19 51 30 64 36 114 22 173 -15 58 -24 217 -11 188 6 -13 9 -15 9 -5 1 27 -11
60 -20 54 -5 -3 -6 2 -3 11 7 17 -14 75 -27 75 -5 0 -9 9 -9 20 0 11 -4 20 -9
20 -4 0 -6 -12 -3 -27 2 -16 2 -26 -1 -23 -8 8 -41 135 -71 275 -80 377 -97
458 -110 540 -34 197 -86 621 -100 810 -18 225 -40 774 -33 782 3 2 92 -42
199 -98 314 -166 849 -433 970 -484 62 -26 119 -54 126 -64 7 -9 15 -14 17
-11 4 6 65 -81 65 -93 0 -5 -4 -5 -10 -2 -5 3 -10 2 -10 -4 0 -6 -13 -26 -30
-44 -16 -19 -30 -39 -30 -45 0 -6 -8 -17 -18 -24 -9 -7 -24 -29 -33 -48 -9
-19 -31 -63 -48 -97 -35 -70 -40 -129 -16 -186 8 -20 24 -38 35 -42 11 -3 20
-12 20 -19 0 -20 32 -44 65 -48 22 -2 30 -8 30 -23 0 -11 8 -27 18 -35 10 -8
32 -27 49 -42 17 -16 35 -28 40 -28 15 0 9 -127 -7 -140 -8 -7 -12 -16 -9 -21
3 -5 -10 -25 -30 -45 -19 -19 -35 -38 -35 -42 0 -13 -103 -112 -117 -112 -8 0
-14 -9 -14 -21 0 -16 -4 -19 -17 -15 -10 4 -15 4 -11 1 3 -4 -16 -30 -43 -58
-75 -80 -86 -94 -92 -111 -4 -9 -11 -16 -17 -16 -5 0 -10 -8 -10 -17 0 -10
-11 -40 -25 -67 -14 -27 -25 -55 -25 -63 0 -7 -4 -13 -8 -13 -5 0 -16 -24 -25
-54 -10 -30 -25 -57 -33 -60 -10 -4 -14 -14 -11 -26 3 -11 1 -20 -4 -20 -5 0
-9 -10 -10 -22 0 -13 -3 -17 -6 -9 -3 7 -14 -12 -24 -43 -11 -32 -17 -61 -14
-65 2 -5 -3 -8 -13 -7 -12 1 -16 -5 -15 -21 2 -13 -2 -22 -8 -20 -6 1 -16 -11
-22 -28 -5 -16 -16 -34 -23 -38 -8 -4 -14 -17 -14 -28 0 -14 -4 -18 -12 -13
-10 6 -9 3 0 -8 10 -13 11 -22 2 -38 -6 -11 -15 -18 -19 -16 -7 5 -53 -66 -51
-79 0 -3 -1 -8 -1 -12 -1 -8 -4 -31 -7 -62 -2 -11 -6 -10 -16 4 -14 19 -15 19
-24 -5 -6 -14 -13 -38 -17 -53 -5 -25 -8 -27 -21 -16 -14 11 -15 8 -10 -27 5
-28 4 -34 -3 -19 -9 20 -10 19 -10 -1 -1 -12 -12 -32 -26 -45 -13 -13 -25 -35
-25 -49 0 -18 -3 -21 -9 -11 -7 10 -11 6 -16 -17 -3 -17 -13 -33 -21 -36 -8
-3 -14 -14 -14 -25 0 -11 -5 -23 -11 -26 -6 -4 -8 -13 -5 -20 3 -9 -2 -12 -14
-10 -13 2 -17 -1 -14 -10 3 -7 -4 -18 -15 -25 -12 -6 -21 -17 -21 -25 0 -8 -6
-15 -12 -15 -9 0 -8 -4 2 -10 11 -7 12 -12 4 -17 -7 -5 -14 -17 -16 -28 -2
-11 -10 -19 -18 -17 -11 3 -11 0 1 -14 12 -15 12 -17 0 -9 -11 6 -13 4 -8 -9
4 -9 3 -14 -2 -11 -10 5 -27 -33 -23 -49 2 -5 -4 -6 -13 -2 -10 3 -13 2 -10
-5 4 -5 1 -16 -5 -24 -7 -8 -10 -22 -6 -30 3 -9 2 -14 -3 -11 -10 6 -35 -42
-46 -86 -4 -16 -11 -28 -16 -28 -5 0 -5 -7 -2 -17 4 -11 3 -14 -5 -9 -7 4 -12
1 -12 -7 0 -8 7 -17 15 -21 11 -4 23 10 41 47 15 29 57 102 95 164 68 112 164
276 214 368 16 28 65 115 110 195 45 80 129 228 185 330 173 311 180 319 407
469 241 159 814 601 1016 782 14 13 52 17 185 22 92 4 181 9 199 13 l31 6 82
-248 c91 -279 139 -463 200 -764 96 -473 128 -545 289 -654 119 -79 235 -121
458 -165 223 -44 329 -72 382 -99 29 -15 39 -29 54 -72 10 -29 24 -62 32 -74
8 -11 16 -34 16 -51 1 -18 3 -23 6 -12 5 18 6 18 19 -1 8 -11 11 -28 8 -37 -4
-9 -3 -15 2 -14 5 1 22 -1 37 -6 41 -11 108 11 177 60 55 39 100 84 100 100 0
4 9 19 19 34 24 34 36 127 21 167 -19 49 -62 104 -81 104 -11 0 -19 6 -19 13
0 10 -36 32 -110 67 -8 4 -60 18 -115 31 -55 13 -101 27 -103 31 -2 5 -14 8
-26 8 -28 0 -144 56 -169 82 -17 17 -34 19 -185 17 -92 -1 -195 4 -230 10 -61
12 -162 62 -162 82 0 5 -6 9 -12 9 -19 0 -140 128 -165 175 -61 113 -82 167
-98 245 -17 88 -44 341 -35 335 7 -4 3 270 -5 312 -3 20 -10 43 -15 52 -4 9
-13 36 -20 61 -20 74 -32 95 -87 143 -60 52 -60 51 42 91 138 54 227 119 237
171 8 42 -12 117 -43 159 -16 22 -29 46 -29 52 0 7 -22 42 -49 77 -28 36 -48
67 -46 69 3 3 -9 17 -25 33 -17 16 -30 33 -30 38 0 15 -107 117 -123 117 -8 0
-22 11 -31 24 -8 13 -28 27 -43 30 -19 4 -35 19 -49 44 -17 32 -19 43 -10 82
5 25 15 50 22 55 6 6 15 23 19 40 3 16 15 48 26 72 22 50 24 101 5 147 -16 39
-109 100 -171 111 -22 4 -44 10 -50 14 -5 5 -45 20 -87 36 -42 15 -79 33 -82
41 -3 8 -16 14 -29 14 -14 0 -36 9 -49 20 -14 10 -27 17 -30 15 -3 -3 -13 4
-23 15 -10 11 -26 20 -37 20 -10 0 -18 5 -18 10 0 6 -8 10 -19 10 -10 0 -24 7
-31 15 -7 9 -32 25 -54 36 -23 11 -54 29 -71 39 -16 11 -38 23 -47 26 -10 4
-18 10 -18 15 0 5 -9 9 -20 9 -11 0 -20 7 -20 15 0 8 -4 15 -9 15 -5 0 -16 6
-23 13 -7 6 -28 20 -46 30 -38 21 -162 141 -162 156 0 5 -3 11 -7 13 -12 5
-49 79 -57 111 -3 15 -13 27 -21 27 -25 0 -18 52 10 79 14 13 25 32 25 42 0
11 11 24 24 30 13 6 27 20 29 30 3 12 11 17 19 14 23 -9 51 64 43 111 -4 21
-7 45 -8 52 0 6 -6 12 -13 12 -7 0 -11 8 -10 17 2 13 27 22 112 39 60 12 135
28 167 35 l59 14 21 -30 c45 -62 130 -128 182 -141 14 -3 24 -8 21 -11 -2 -2
-21 0 -43 6 -38 10 -38 10 -16 -8 12 -10 19 -21 16 -25 -4 -3 -1 -6 5 -6 7 0
12 -5 12 -11 0 -7 -10 -9 -25 -5 -38 10 -31 -15 13 -44 120 -80 231 -109 427
-111 84 -1 99 1 127 21 59 41 78 73 79 132 2 56 -24 162 -41 173 -6 4 -8 10
-5 15 3 4 -2 13 -10 20 -7 6 -11 19 -9 28 4 12 0 10 -14 -5 -11 -13 -25 -23
-32 -23 -6 0 -9 -4 -6 -9 3 -5 -1 -11 -9 -15 -21 -8 -19 -4 15 39 41 51 93
192 58 157 -18 -18 -23 -15 -25 21 -1 30 -18 133 -26 167 -9 36 -27 67 -53 94
-25 24 -35 27 -71 23 -34 -4 -57 -17 -115 -67 l-73 -62 -80 6 c-87 7 -151 21
-160 36 -3 5 -12 7 -19 4 -8 -3 -31 -1 -52 5 -132 35 -344 33 -554 -5 -81 -15
-341 -17 -366 -2 -5 3 -34 9 -64 13 -55 7 -111 21 -140 35 -37 18 -119 21
-176 7 -111 -29 -209 -49 -259 -54 -27 -3 -70 -9 -95 -15 -41 -10 -114 -18
-165 -18 -22 0 -113 14 -157 25 -21 6 -35 22 -58 71 -17 35 -29 69 -25 76 4 7
-3 3 -14 -10 -11 -12 -59 -93 -106 -179 -48 -87 -101 -180 -119 -208 -18 -27
-55 -85 -82 -129 -27 -43 -58 -88 -69 -100 -11 -11 -18 -27 -17 -34 2 -8 -1
-11 -7 -7 -6 3 -11 1 -11 -4 0 -6 -7 -11 -15 -11 -8 0 -15 9 -15 19 0 11 -5
21 -11 23 -18 6 -27 101 -35 338 -4 138 -11 218 -18 223 -7 5 -5 11 7 18 9 5
17 14 17 19 0 11 55 91 106 155 40 50 112 192 154 305 7 19 17 39 22 45 4 5 8
21 8 36 0 15 4 29 8 31 11 4 62 151 62 176 0 10 6 24 13 31 9 9 12 61 12 192
0 175 -1 181 -22 199 -13 10 -23 25 -23 34 0 9 -11 22 -25 28 -14 6 -25 17
-25 24 0 27 -58 73 -105 84 -26 6 -63 17 -82 25 -20 8 -42 15 -51 15 -8 0 -30
11 -48 25 -22 17 -45 25 -73 25 -23 0 -41 5 -41 11 0 6 -23 10 -57 9 -65 -1
-131 8 -138 20 -3 5 -42 6 -88 4 -56 -2 -72 -1 -52 5 l30 9 -35 2 c-51 2 -194
19 -275 31 -38 6 -115 13 -170 17 -87 5 -94 7 -55 13 30 4 2 7 -85 7 -287 1
-316 2 -310 12 3 6 -2 10 -12 10 -10 0 -93 3 -185 6 -93 3 -169 2 -169 -3z
m4328 -2075 c8 -47 7 -58 -4 -58 -7 0 -13 6 -13 13 0 9 -2 9 -8 -1 -6 -9 -21
-2 -55 29 -26 22 -47 44 -47 49 0 10 103 39 111 31 4 -3 11 -32 16 -63z m260
-164 c-3 -3 -12 -4 -19 -1 -8 3 -5 6 6 6 11 1 17 -2 13 -5z m-4894 -1051 c-7
-2 -19 -2 -25 0 -7 3 -2 5 12 5 14 0 19 -2 13 -5z m2745 -2623 c0 -8 -6 1 -13
20 -7 19 -13 42 -13 50 0 8 6 -1 13 -20 7 -19 13 -42 13 -50z m-587 -347 c13
-16 12 -17 -3 -4 -17 13 -22 21 -14 21 2 0 10 -8 17 -17z m530 -76 c-10 -9
-11 -8 -5 6 3 10 9 15 12 12 3 -3 0 -11 -7 -18z m-11 -27 c0 -5 -5 -10 -11
-10 -5 0 -7 5 -4 10 3 6 8 10 11 10 2 0 4 -4 4 -10z m23 -30 c-3 -11 -10 -23
-16 -27 -5 -3 -8 -2 -5 3 3 5 8 17 11 27 9 24 16 22 10 -3z m-46 -9 c0 -11 -5
-18 -9 -15 -4 3 -5 11 -1 19 7 21 12 19 10 -4z m-321 -67 c1 -9 -1 -13 -4 -9
-4 4 -7 10 -7 13 0 4 -4 14 -9 22 -7 12 -6 13 4 3 8 -7 15 -20 16 -29z"/>
<path d="M6138 9363 c7 -3 16 -2 19 1 4 3 -2 6 -13 5 -11 0 -14 -3 -6 -6z"/>
<path d="M2801 8174 c0 -11 3 -14 6 -6 3 7 2 16 -1 19 -3 4 -6 -2 -5 -13z"/>
<path d="M2811 8134 c0 -11 3 -14 6 -6 3 7 2 16 -1 19 -3 4 -6 -2 -5 -13z"/>
<path d="M2822 8090 c0 -14 2 -19 5 -12 2 6 2 18 0 25 -3 6 -5 1 -5 -13z"/>
<path d="M2832 8040 c0 -14 2 -19 5 -12 2 6 2 18 0 25 -3 6 -5 1 -5 -13z"/>
<path d="M2580 7393 c-7 -21 -21 -55 -32 -76 -11 -22 -17 -41 -14 -44 7 -7 42
64 55 111 14 52 7 59 -9 9z"/>
<path d="M2558 7201 c9 -22 20 -36 25 -32 11 11 -13 71 -28 71 -11 0 -10 -8 3
-39z"/>
<path d="M2385 7116 c-11 -7 -37 -19 -58 -26 -36 -11 -37 -13 -22 -30 12 -13
29 -17 68 -15 29 1 61 6 72 10 19 8 19 7 4 -11 -33 -40 -30 -52 27 -129 39
-54 61 -75 77 -75 15 0 26 -10 35 -29 12 -27 11 -32 -7 -50 -12 -12 -21 -28
-21 -36 0 -9 69 -113 153 -233 85 -119 165 -236 178 -259 13 -24 27 -43 31
-43 10 0 354 177 397 205 76 49 111 109 111 195 0 27 -4 36 -17 36 -21 1 -102
11 -187 23 -49 7 -64 14 -97 47 -21 21 -38 44 -39 50 0 7 -6 14 -14 17 -16 6
-38 -50 -51 -126 l-6 -39 -63 85 c-35 47 -80 113 -102 146 -41 64 -63 74 -100
46 -17 -13 -21 -12 -44 15 l-25 29 -25 -21 c-20 -17 -21 -20 -5 -14 35 13 38
12 49 -16 13 -36 4 -44 -28 -22 -31 20 -45 11 -28 -16 7 -11 9 -20 4 -20 -13
0 -34 42 -25 49 12 8 11 51 -2 71 -15 23 -95 83 -95 72 0 -5 15 -32 33 -58 47
-69 49 -74 38 -74 -5 0 -24 21 -42 47 -18 25 -40 54 -50 64 -42 42 -32 80 27
115 10 7 16 15 12 19 -3 4 -20 -3 -36 -15 -34 -25 -82 -19 -89 11 -6 23 -12
23 -38 5z"/>
<path d="M2580 7112 c0 -28 105 -188 114 -173 4 5 -17 45 -45 88 -60 91 -69
101 -69 85z"/>
<path d="M3430 6081 c-8 -6 -18 -8 -22 -5 -4 3 -29 -3 -55 -12 -116 -40 -195
-52 -301 -48 l-105 4 -96 -46 c-53 -25 -98 -50 -99 -55 -2 -5 -7 -7 -12 -4 -5
3 -11 -3 -15 -14 -6 -20 24 -99 75 -199 23 -45 30 -52 30 -32 0 29 23 46 89
65 77 22 511 212 574 252 21 13 47 26 57 28 23 5 60 28 60 38 0 9 -16 1 -44
-22 -16 -13 -16 -10 3 14 l23 30 -24 6 c-35 10 -121 10 -138 0z"/>
<path d="M3718 5665 c-3 -3 -25 -8 -49 -11 -81 -10 -94 -12 -99 -15 -14 -6
-70 -8 -230 -7 -386 4 -377 4 -404 -21 -14 -13 -29 -20 -35 -16 -6 3 -11 0
-11 -7 0 -7 -14 3 -31 22 l-30 35 32 -65 c17 -36 65 -118 106 -182 72 -114
100 -150 69 -89 -19 36 -8 47 54 55 66 8 333 116 578 232 50 25 81 57 63 68
-4 3 -10 3 -13 1z"/>
<path d="M4111 5469 c-2 -27 -41 -69 -100 -108 -55 -35 -58 -36 -181 -42 -113
-5 -140 -10 -275 -53 -148 -47 -152 -47 -297 -49 -93 -1 -144 -6 -141 -12 2
-5 -12 8 -32 30 l-36 40 31 -54 c48 -83 79 -120 125 -146 45 -27 78 -31 122
-14 15 6 93 30 173 54 113 35 148 42 156 32 7 -7 66 -88 131 -182 66 -93 152
-216 192 -273 40 -57 82 -107 94 -111 12 -5 32 -23 45 -40 23 -32 58 -41 80
-19 8 8 5 18 -14 41 -34 40 -16 62 22 26 l27 -24 -18 28 c-17 27 -17 28 3 50
21 22 21 24 4 42 -17 19 -16 19 4 2 12 -10 28 -15 37 -12 10 4 21 -4 33 -24
18 -31 34 -40 34 -20 0 6 -11 25 -25 43 -16 21 -22 39 -19 53 4 15 -5 38 -26
70 -48 71 -178 259 -230 333 -25 36 -53 77 -62 92 l-17 26 52 40 c56 42 122
147 114 180 -4 14 -5 14 -6 1z"/>
<path d="M3898 3950 c-33 -20 -24 -97 22 -186 76 -151 175 -268 705 -829 681
-721 893 -924 1205 -1157 199 -147 478 -310 589 -342 89 -26 119 -22 161 22
42 45 115 186 106 207 -3 8 -1 15 3 15 9 0 24 30 19 36 -2 1 -14 -6 -27 -17
-20 -17 -22 -21 -10 -37 11 -14 9 -13 -9 2 -14 12 -22 15 -22 7 0 -14 -56 -6
-76 10 -6 5 -20 10 -31 12 -17 2 -242 224 -251 247 -6 16 -1335 1320 -1498
1471 -346 318 -668 534 -814 545 -30 3 -63 0 -72 -6z"/>
<path d="M7190 3599 c0 -5 -3 -8 -7 -6 -5 3 -8 -16 -8 -42 0 -33 3 -44 10 -37
10 10 17 96 9 96 -2 0 -4 -5 -4 -11z"/>
<path d="M7195 3510 c-3 -5 -3 -15 1 -22 5 -7 3 -8 -6 -3 -10 6 -12 2 -6 -16
17 -62 18 -119 2 -165 -13 -38 -13 -49 -4 -56 32 -20 34 -11 37 145 2 118 -4
149 -24 117z"/>
<path d="M7440 3355 c0 -5 5 -17 10 -25 5 -8 10 -10 10 -5 0 6 -5 17 -10 25
-5 8 -10 11 -10 5z"/>
<path d="M6456 3302 c-7 -11 -1 -16 17 -13 10 1 9 -23 -2 -34 -6 -6 -3 -16 7
-25 14 -13 15 -12 10 2 -4 8 -2 20 3 25 6 6 3 18 -9 33 -13 16 -21 20 -26 12z"/>
<path d="M6840 2870 c0 -5 5 -10 10 -10 6 0 10 5 10 10 0 6 -4 10 -10 10 -5 0
-10 -4 -10 -10z"/>
<path d="M6980 2451 c0 -11 -6 -21 -12 -24 -7 -2 -9 -8 -5 -13 5 -5 15 -1 23
10 16 23 18 46 4 46 -5 0 -10 -9 -10 -19z"/>
<path d="M6931 2317 c-19 -45 -38 -86 -41 -92 -10 -15 -20 -45 -15 -45 6 0 84
169 91 196 11 44 -1 24 -35 -59z"/>
<path d="M9458 2253 c6 -2 18 -2 25 0 6 3 1 5 -13 5 -14 0 -19 -2 -12 -5z"/>
<path d="M9868 2243 c7 -3 16 -2 19 1 4 3 -2 6 -13 5 -11 0 -14 -3 -6 -6z"/>
<path d="M9433 2233 c9 -2 25 -2 35 0 9 3 1 5 -18 5 -19 0 -27 -2 -17 -5z"/>
<path d="M9625 2230 c-13 -6 -2 -7 30 -3 28 3 52 7 54 9 9 8 -65 2 -84 -6z"/>
<path d="M9172 2209 c7 -54 157 -87 432 -96 168 -6 179 -5 173 11 -4 10 -8 25
-8 34 -1 9 -5 4 -9 -13 l-8 -30 -1 28 c-1 21 -6 27 -23 27 -13 1 -72 3 -133 5
-60 2 -121 4 -135 4 -44 1 -241 34 -273 47 -15 6 -18 3 -15 -17z"/>
<path d="M9248 2223 c6 -2 18 -2 25 0 6 3 1 5 -13 5 -14 0 -19 -2 -12 -5z"/>
<path d="M9792 2140 c0 -19 2 -27 5 -17 2 9 2 25 0 35 -3 9 -5 1 -5 -18z"/>
<path d="M9842 2145 c0 -16 2 -22 5 -12 2 9 2 23 0 30 -3 6 -5 -1 -5 -18z"/>
<path d="M9822 2140 c0 -14 2 -19 5 -12 2 6 2 18 0 25 -3 6 -5 1 -5 -13z"/>
<path d="M6826 2075 c-9 -26 -7 -32 5 -12 6 10 9 21 6 23 -2 3 -7 -2 -11 -11z"/>
<path d="M4678 1833 c7 -3 16 -2 19 1 4 3 -2 6 -13 5 -11 0 -14 -3 -6 -6z"/>
<path d="M4530 1826 c0 -2 7 -7 16 -10 8 -3 12 -2 9 4 -6 10 -25 14 -25 6z"/>
<path d="M5018 1813 c7 -3 16 -2 19 1 4 3 -2 6 -13 5 -11 0 -14 -3 -6 -6z"/>
<path d="M4590 1802 c8 -5 26 -13 40 -16 17 -5 20 -4 10 2 -8 5 -26 13 -40 16
-17 5 -20 4 -10 -2z"/>
<path d="M4703 1803 c9 -2 23 -2 30 0 6 3 -1 5 -18 5 -16 0 -22 -2 -12 -5z"/>
<path d="M8110 1806 c0 -2 11 -6 25 -8 13 -3 22 -1 19 3 -5 9 -44 13 -44 5z"/>
<path d="M8178 1803 c7 -3 16 -2 19 1 4 3 -2 6 -13 5 -11 0 -14 -3 -6 -6z"/>
<path d="M8300 1799 c0 -5 11 -9 25 -9 14 0 25 2 25 4 0 2 -11 6 -25 8 -14 3
-25 1 -25 -3z"/>
<path d="M8370 1800 c0 -5 5 -10 10 -10 6 0 10 5 10 10 0 6 -4 10 -10 10 -5 0
-10 -4 -10 -10z"/>
<path d="M4321 1796 c2 -2 18 -6 34 -10 22 -5 26 -4 15 4 -14 9 -59 15 -49 6z"/>
<path d="M4398 1793 c7 -3 16 -2 19 1 4 3 -2 6 -13 5 -11 0 -14 -3 -6 -6z"/>
<path d="M6721 1769 c-6 -18 -9 -34 -7 -36 2 -2 9 10 15 28 6 18 9 34 7 36 -2
2 -9 -10 -15 -28z"/>
<path d="M7935 1790 c27 -12 43 -12 25 0 -8 5 -22 9 -30 9 -10 0 -8 -3 5 -9z"/>
<path d="M7986 1791 c-4 -5 3 -7 14 -4 23 6 26 13 6 13 -8 0 -17 -4 -20 -9z"/>
<path d="M8560 1780 c-13 -8 -13 -10 2 -10 9 0 20 5 23 10 8 13 -5 13 -25 0z"/>
<path d="M4523 1768 c7 -4 55 -7 107 -6 105 1 89 6 -37 10 -44 2 -76 0 -70 -4z"/>
<path d="M5063 1773 c9 -2 23 -2 30 0 6 3 -1 5 -18 5 -16 0 -22 -2 -12 -5z"/>
<path d="M5128 1773 c7 -3 16 -2 19 1 4 3 -2 6 -13 5 -11 0 -14 -3 -6 -6z"/>
<path d="M8138 1773 c6 -2 18 -2 25 0 6 3 1 5 -13 5 -14 0 -19 -2 -12 -5z"/>
<path d="M8493 1773 c9 -2 25 -2 35 0 9 3 1 5 -18 5 -19 0 -27 -2 -17 -5z"/>
<path d="M4783 1763 c15 -2 37 -2 50 0 12 2 0 4 -28 4 -27 0 -38 -2 -22 -4z"/>
<path d="M8085 1760 c11 -5 29 -8 40 -8 16 0 15 2 -5 8 -34 11 -60 11 -35 0z"/>
<path d="M8193 1763 c9 -2 23 -2 30 0 6 3 -1 5 -18 5 -16 0 -22 -2 -12 -5z"/>
<path d="M4288 1753 c6 -2 18 -2 25 0 6 3 1 5 -13 5 -14 0 -19 -2 -12 -5z"/>
<path d="M4358 1753 c7 -3 16 -2 19 1 4 3 -2 6 -13 5 -11 0 -14 -3 -6 -6z"/>
<path d="M7833 1753 c9 -2 23 -2 30 0 6 3 -1 5 -18 5 -16 0 -22 -2 -12 -5z"/>
<path d="M7898 1753 c7 -3 16 -2 19 1 4 3 -2 6 -13 5 -11 0 -14 -3 -6 -6z"/>
<path d="M8595 1740 c27 -12 43 -12 25 0 -8 5 -22 9 -30 9 -10 0 -8 -3 5 -9z"/>
<path d="M8648 1743 c7 -3 16 -2 19 1 4 3 -2 6 -13 5 -11 0 -14 -3 -6 -6z"/>
<path d="M10548 1734 c45 -85 221 -123 597 -131 265 -6 381 3 584 42 144 28
227 55 263 85 18 15 12 14 -29 -6 -57 -27 -258 -69 -403 -85 -115 -12 -436
-10 -552 3 -45 5 -98 11 -116 13 -18 3 -56 11 -85 20 -55 16 -135 37 -152 40
-5 1 -12 3 -15 4 -3 2 -14 4 -25 6 -37 7 -50 10 -63 19 -11 7 -12 4 -4 -10z"/>
<path d="M4220 1711 c0 -40 26 -58 116 -82 60 -15 125 -22 265 -26 l185 -6 -4
37 c-4 33 -7 36 -38 36 -19 0 -34 5 -34 10 0 6 -12 10 -27 9 l-28 -1 25 -8
c16 -6 -8 -8 -72 -8 -70 0 -101 4 -109 14 -6 8 -21 14 -33 13 -19 -1 -18 -2 4
-9 l25 -8 -24 -1 c-13 -1 -54 4 -90 10 -52 9 -62 14 -46 21 15 6 11 7 -13 3
-18 -2 -49 2 -68 10 l-34 14 0 -28z"/>
<path d="M4655 1730 c11 -5 29 -8 40 -8 16 0 15 2 -5 8 -34 11 -60 11 -35 0z"/>
<path d="M4760 1730 l-35 -7 32 -2 c17 0 35 4 38 9 3 6 5 9 3 9 -2 -1 -19 -5
-38 -9z"/>
<path d="M4845 1730 c-16 -7 -17 -9 -3 -9 9 -1 20 4 23 9 7 11 7 11 -20 0z"/>
<path d="M5028 1733 c6 -2 18 -2 25 0 6 3 1 5 -13 5 -14 0 -19 -2 -12 -5z"/>
<path d="M8036 1731 c2 -3 66 -8 142 -12 75 -4 148 -10 162 -13 14 -4 10 0
-10 8 l-35 15 55 -6 c30 -3 52 -2 48 2 -4 4 -88 8 -187 9 -98 0 -177 -1 -175
-3z"/>
<path d="M4378 1713 c6 -2 18 -2 25 0 6 3 1 5 -13 5 -14 0 -19 -2 -12 -5z"/>
<path d="M7750 1690 c0 -21 8 -34 33 -48 76 -48 321 -84 533 -80 l139 3 3 40
c4 47 -14 38 -21 -10 l-4 -30 -2 33 c0 17 -5 32 -10 32 -6 0 -12 -15 -14 -32
l-4 -33 -1 33 c-1 21 -7 32 -17 32 -10 0 -16 -11 -16 -32 l-2 -33 -4 30 c-3
17 -9 35 -14 41 -12 14 -59 25 -59 13 0 -4 10 -10 23 -12 46 -9 -100 -5 -153
4 -30 5 -88 10 -128 12 -49 1 -76 7 -81 16 -6 9 -20 12 -42 9 -22 -4 -57 3
-96 17 l-63 23 0 -28z"/>
<path d="M7838 1713 c6 -2 18 -2 25 0 6 3 1 5 -13 5 -14 0 -19 -2 -12 -5z"/>
<path d="M7898 1713 c7 -3 16 -2 19 1 4 3 -2 6 -13 5 -11 0 -14 -3 -6 -6z"/>
<path d="M4881 1706 c2 -2 18 -6 34 -10 22 -5 26 -4 15 4 -14 9 -59 15 -49 6z"/>
<path d="M4965 1700 c3 -5 8 -10 11 -10 2 0 4 5 4 10 0 6 -5 10 -11 10 -5 0
-7 -4 -4 -10z"/>
<path d="M8594 1698 c-3 -5 18 -8 45 -8 28 0 51 3 51 8 0 10 -90 9 -96 0z"/>
<path d="M4528 1693 c7 -3 16 -2 19 1 4 3 -2 6 -13 5 -11 0 -14 -3 -6 -6z"/>
<path d="M8236 1688 c30 -8 217 -8 209 0 -3 3 -57 6 -121 6 -72 1 -106 -1 -88
-6z"/>
<path d="M4728 1683 c6 -2 18 -2 25 0 6 3 1 5 -13 5 -14 0 -19 -2 -12 -5z"/>
<path d="M4830 1650 c0 -16 -5 -30 -11 -30 -7 0 -9 10 -7 25 4 17 1 25 -9 25
-10 0 -13 -10 -11 -32 3 -32 4 -33 48 -30 71 5 80 10 80 43 0 16 -4 29 -10 29
-5 0 -10 -13 -10 -30 0 -16 -4 -30 -10 -30 -5 0 -10 14 -10 30 0 40 -18 38
-23 -2 l-4 -33 -1 33 c-2 40 -22 43 -22 2z"/>
<path d="M4937 1673 c-11 -10 -8 -53 3 -53 6 0 10 14 10 30 0 31 -2 35 -13 23z"/>
<path d="M4972 1655 c0 -16 2 -22 5 -12 2 9 2 23 0 30 -3 6 -5 -1 -5 -18z"/>
<path d="M7968 1673 c6 -2 18 -2 25 0 6 3 1 5 -13 5 -14 0 -19 -2 -12 -5z"/>
<path d="M8505 1660 c3 -5 18 -10 32 -10 32 0 28 5 -10 14 -19 4 -26 3 -22 -4z"/>
<path d="M8575 1660 c-3 -5 1 -10 9 -10 9 0 16 5 16 10 0 6 -4 10 -9 10 -6 0
-13 -4 -16 -10z"/>
<path d="M8148 1653 c7 -3 16 -2 19 1 4 3 -2 6 -13 5 -11 0 -14 -3 -6 -6z"/>
<path d="M8480 1607 c0 -20 4 -37 10 -37 5 0 7 14 3 33 -8 45 -13 47 -13 4z"/>
<path d="M8513 1605 c0 -22 2 -30 4 -17 2 12 2 30 0 40 -3 9 -5 -1 -4 -23z"/>
<path d="M8544 1605 c0 -14 4 -25 8 -25 4 0 7 11 6 25 -3 33 -16 33 -14 0z"/>
<path d="M2623 1583 c9 -2 23 -2 30 0 6 3 -1 5 -18 5 -16 0 -22 -2 -12 -5z"/>
<path d="M3058 1583 c7 -3 16 -2 19 1 4 3 -2 6 -13 5 -11 0 -14 -3 -6 -6z"/>
<path d="M3118 1573 c7 -3 16 -2 19 1 4 3 -2 6 -13 5 -11 0 -14 -3 -6 -6z"/>
<path d="M2508 1558 c5 -5 16 -8 23 -6 8 3 3 7 -10 11 -17 4 -21 3 -13 -5z"/>
<path d="M2738 1563 c6 -2 18 -2 25 0 6 3 1 5 -13 5 -14 0 -19 -2 -12 -5z"/>
<path d="M2808 1563 c6 -2 18 -2 25 0 6 3 1 5 -13 5 -14 0 -19 -2 -12 -5z"/>
<path d="M2930 1562 c0 -4 9 -8 19 -8 11 0 17 4 15 8 -3 4 -12 8 -20 8 -8 0
-14 -4 -14 -8z"/>
<path d="M3008 1563 c7 -3 16 -2 19 1 4 3 -2 6 -13 5 -11 0 -14 -3 -6 -6z"/>
<path d="M2588 1553 c7 -3 16 -2 19 1 4 3 -2 6 -13 5 -11 0 -14 -3 -6 -6z"/>
<path d="M2671 1536 c2 -2 33 -6 69 -9 38 -3 57 -1 45 3 -19 8 -123 14 -114 6z"/>
<path d="M2600 1523 c0 -5 10 -8 23 -9 12 0 31 -4 42 -8 13 -5 11 -2 -5 8 -27
16 -60 21 -60 9z"/>
<path d="M2345 1510 c11 -5 27 -9 35 -9 13 -1 13 0 0 9 -8 5 -24 9 -35 9 l-20
0 20 -9z"/>
<path d="M2408 1513 c6 -2 18 -2 25 0 6 3 1 5 -13 5 -14 0 -19 -2 -12 -5z"/>
<path d="M3128 1493 c6 -2 18 -2 25 0 6 3 1 5 -13 5 -14 0 -19 -2 -12 -5z"/>
<path d="M3188 1493 c6 -2 18 -2 25 0 6 3 1 5 -13 5 -14 0 -19 -2 -12 -5z"/>
<path d="M2558 1477 c15 -4 61 -7 102 -6 41 1 89 -5 105 -12 l30 -12 -45 -8
c-25 -4 -56 -5 -70 -3 -23 4 -23 4 -4 -5 27 -12 146 -2 138 11 -16 25 -83 41
-181 42 -63 1 -92 -2 -75 -7z"/>
<path d="M2775 1485 c24 -8 116 -12 103 -4 -7 5 -35 8 -63 8 -27 0 -45 -2 -40
-4z"/>
<path d="M2263 1463 c9 -2 23 -2 30 0 6 3 -1 5 -18 5 -16 0 -22 -2 -12 -5z"/>
<path d="M2328 1463 c6 -2 18 -2 25 0 6 3 1 5 -13 5 -14 0 -19 -2 -12 -5z"/>
<path d="M2850 1440 l-25 -8 28 -1 c15 -1 27 4 27 9 0 6 -1 10 -2 9 -2 -1 -14
-5 -28 -9z"/>
<path d="M3058 1443 c6 -2 18 -2 25 0 6 3 1 5 -13 5 -14 0 -19 -2 -12 -5z"/>
<path d="M3128 1443 c6 -2 18 -2 25 0 6 3 1 5 -13 5 -14 0 -19 -2 -12 -5z"/>
<path d="M2184 1426 c-3 -8 -4 -25 -2 -37 10 -66 142 -94 443 -94 262 0 275 2
275 50 0 19 -4 35 -10 35 -5 0 -10 -13 -10 -29 0 -17 -4 -33 -10 -36 -6 -4
-10 8 -10 29 0 24 -5 36 -14 36 -9 0 -12 -7 -9 -19 3 -11 0 -28 -6 -38 -9 -15
-10 -12 -11 19 0 28 -3 36 -14 32 -8 -3 -17 -20 -19 -37 l-4 -32 -1 31 -2 32
-212 5 c-218 5 -302 17 -353 51 -22 14 -26 15 -31 2z"/>
<path d="M2270 1420 c34 -11 60 -11 35 0 -11 5 -29 8 -40 8 -16 0 -15 -2 5 -8z"/>
<path d="M2338 1423 c6 -2 18 -2 25 0 6 3 1 5 -13 5 -14 0 -19 -2 -12 -5z"/>
<path d="M2900 1396 c18 -8 21 -16 18 -48 -2 -23 1 -37 7 -35 5 2 11 20 13 40
3 32 7 37 28 37 13 0 24 4 24 9 0 4 -25 8 -56 7 -45 0 -52 -2 -34 -10z"/>
<path d="M2408 1393 c7 -3 16 -2 19 1 4 3 -2 6 -13 5 -11 0 -14 -3 -6 -6z"/>
<path d="M2478 1393 c6 -2 18 -2 25 0 6 3 1 5 -13 5 -14 0 -19 -2 -12 -5z"/>
<path d="M2628 1383 c6 -2 18 -2 25 0 6 3 1 5 -13 5 -14 0 -19 -2 -12 -5z"/>
<path d="M2698 1383 c6 -2 18 -2 25 0 6 3 1 5 -13 5 -14 0 -19 -2 -12 -5z"/>
<path d="M3002 1360 c0 -19 2 -27 5 -17 2 9 2 25 0 35 -3 9 -5 1 -5 -18z"/>
<path d="M2958 1350 c-3 -16 -1 -30 4 -30 4 0 8 14 8 30 0 17 -2 30 -4 30 -2
0 -6 -13 -8 -30z"/>
<path d="M928 713 c18 -2 45 -2 60 0 15 2 0 4 -33 4 -33 0 -45 -2 -27 -4z"/>
<path d="M1213 713 c15 -2 39 -2 55 0 15 2 2 4 -28 4 -30 0 -43 -2 -27 -4z"/>
<path d="M813 703 c9 -2 25 -2 35 0 9 3 1 5 -18 5 -19 0 -27 -2 -17 -5z"/>
<path d="M1333 703 c9 -2 23 -2 30 0 6 3 -1 5 -18 5 -16 0 -22 -2 -12 -5z"/>
<path d="M1398 693 c7 -3 16 -2 19 1 4 3 -2 6 -13 5 -11 0 -14 -3 -6 -6z"/>
<path d="M1015 681 c-16 -4 -46 -6 -65 -4 l-35 3 33 -9 c38 -10 112 -3 112 10
0 10 -2 10 -45 0z"/>
<path d="M1260 670 c-14 -4 -43 -6 -65 -4 -40 4 -40 4 -7 -5 38 -10 112 -3
112 10 0 10 -5 10 -40 -1z"/>
<path d="M1510 666 c0 -3 9 -10 20 -16 11 -6 20 -8 20 -6 0 3 -9 10 -20 16
-11 6 -20 8 -20 6z"/>
<path d="M498 653 c7 -3 16 -2 19 1 4 3 -2 6 -13 5 -11 0 -14 -3 -6 -6z"/>
<path d="M648 648 c19 -5 51 -5 75 0 38 8 35 9 -33 9 -62 0 -69 -2 -42 -9z"/>
<path d="M458 643 c7 -3 16 -2 19 1 4 3 -2 6 -13 5 -11 0 -14 -3 -6 -6z"/>
<path d="M1455 630 c-16 -4 -46 -5 -65 -3 l-35 3 31 -9 c32 -8 127 0 109 10
-5 3 -23 3 -40 -1z"/>
<path d="M801 616 c2 -2 45 -6 94 -9 52 -3 79 -2 65 3 -24 8 -168 14 -159 6z"/>
<path d="M730 603 c-8 -2 -21 -7 -29 -9 -8 -2 -12 -7 -9 -10 3 -2 16 0 30 5
19 7 32 5 54 -10 43 -28 54 -23 14 6 -36 26 -36 26 -60 18z"/>
<path d="M387 578 c19 -5 54 -5 80 0 45 9 43 9 -32 9 -63 0 -73 -2 -48 -9z"/>
<path d="M1370 561 c0 -20 123 -20 136 0 7 12 -29 11 -60 -1 -16 -6 -27 -6
-31 0 -8 12 -45 13 -45 1z"/>
<path d="M614 536 c15 -12 44 -16 130 -16 94 0 116 -3 145 -21 18 -11 35 -18
38 -16 2 3 -13 15 -34 28 -34 21 -50 24 -148 24 -60 0 -119 4 -130 8 -20 9
-20 8 -1 -7z"/>
<path d="M911 536 c2 -2 38 -6 79 -9 49 -4 70 -3 60 3 -14 9 -149 15 -139 6z"/>
<path d="M236 512 c-3 -5 7 -12 22 -14 42 -6 112 3 112 14 0 6 -14 7 -37 3
-46 -9 -54 -9 -74 -1 -10 4 -20 3 -23 -2z"/>
<path d="M1055 494 c-33 -12 -51 -23 -40 -23 21 -1 105 34 105 44 0 3 -1 4 -2
4 -2 -1 -30 -12 -63 -25z"/>
<path d="M1244 473 c14 -14 67 -18 106 -8 l45 12 -78 0 c-42 0 -75 -2 -73 -4z"/>
<path d="M735 452 c34 -16 50 -18 110 -10 39 5 89 7 112 4 23 -3 44 -2 47 2 6
10 -25 13 -99 10 -102 -4 -149 -3 -180 5 -24 6 -22 4 10 -11z"/>
<path d="M120 396 c0 -37 5 -48 30 -70 73 -61 281 -92 550 -82 149 6 266 17
328 31 19 5 22 12 22 50 0 40 -2 45 -22 44 -13 0 -18 -3 -13 -5 13 -5 7 -84
-6 -84 -5 0 -9 18 -9 40 0 31 -4 40 -17 40 -14 0 -18 -9 -18 -42 0 -26 -5 -43
-14 -46 -11 -4 -12 5 -7 43 l8 48 -29 -7 c-15 -3 -111 -9 -213 -13 -281 -9
-459 14 -544 72 -20 14 -39 25 -41 25 -3 0 -5 -20 -5 -44z m727 -118 c-2 -13
-4 -3 -4 22 0 25 2 35 4 23 2 -13 2 -33 0 -45z m63 27 c0 -19 -4 -35 -10 -35
-5 0 -10 16 -10 35 0 19 5 35 10 35 6 0 10 -16 10 -35z"/>
<path d="M199 427 c6 -6 34 -9 63 -8 75 3 78 4 78 11 0 4 -34 7 -75 7 -51 0
-72 -4 -66 -10z"/>
<path d="M990 398 c0 -12 61 -14 113 -4 19 4 26 2 21 -6 -4 -7 -3 -8 4 -4 27
17 7 24 -63 23 -41 -1 -75 -5 -75 -9z"/>
<path d="M451 390 c-19 -5 -51 -6 -70 -4 l-36 4 35 -10 c39 -10 120 -2 120 11
0 10 -2 10 -49 -1z"/>
<path d="M1192 370 c0 -14 2 -19 5 -12 2 6 2 18 0 25 -3 6 -5 1 -5 -13z"/>
<path d="M670 365 c21 -7 45 -9 60 -4 14 4 34 10 45 12 11 2 -16 4 -60 4 -74
0 -77 -1 -45 -12z"/>
<path d="M1079 333 c2 -30 -1 -43 -10 -43 -7 0 -10 -2 -7 -5 3 -3 13 -3 22 1
20 8 23 91 4 91 -9 0 -12 -14 -9 -44z"/>
<path d="M1139 345 c-6 -40 -4 -53 7 -43 3 3 4 23 2 44 l-3 39 -6 -40z"/>
</g>
</svg>
